<?xml version="1.0" standalone="no"?>
<!DOCTYPE svg PUBLIC "-//W3C//DTD SVG 20010904//EN"
 "http://www.w3.org/TR/2001/REC-SVG-20010904/DTD/svg10.dtd">
<svg version="1.0" xmlns="http://www.w3.org/2000/svg"
 width="370.000000pt" height="370.000000pt" viewBox="0 0 370.000000 370.000000"
 preserveAspectRatio="xMidYMid meet">
<metadata>
Created by potrace 1.11, written by Peter Selinger 2001-2013
</metadata>
<g transform="translate(0.000000,370.000000) scale(0.100000,-0.100000)"
fill="#000000" stroke="none">
<path d="M2935 3449 c-108 -12 -180 -21 -185 -24 -3 -2 -26 -6 -50 -10 -25 -4
-88 -16 -140 -27 -52 -11 -122 -24 -155 -29 -97 -15 -303 -59 -374 -80 -134
-41 -262 -93 -244 -101 16 -6 15 -7 -3 -7 -12 -1 -48 11 -80 26 -47 22 -75 28
-136 29 -90 1 -138 -5 -138 -17 0 -5 6 -9 14 -9 20 0 29 -17 15 -26 -8 -5 -9
-3 -4 6 6 10 4 12 -9 7 -10 -4 -27 -7 -39 -7 -29 0 -10 -17 27 -24 16 -3 34
-10 40 -16 8 -8 6 -9 -8 -4 -13 5 -17 4 -12 -4 4 -7 11 -12 16 -12 6 0 19 -8
30 -17 24 -21 10 -32 -34 -28 -17 1 -23 0 -14 -2 28 -7 21 -23 -9 -23 -16 1
-57 7 -93 15 -85 19 -90 19 -90 -5 0 -16 -7 -20 -37 -21 -42 -1 -39 -2 -81 6
-18 3 -36 0 -44 -8 -7 -6 -30 -21 -51 -32 -21 -11 -42 -24 -47 -30 -14 -17
-21 -85 -10 -105 7 -13 7 -21 0 -25 -5 -3 -10 1 -10 9 0 9 -5 16 -11 16 -7 0
-9 -9 -5 -24 3 -13 1 -26 -4 -28 -6 -2 -12 -13 -14 -24 -10 -51 -15 -94 -21
-166 -6 -83 -8 -93 -26 -175 l-12 -52 -91 93 c-80 83 -96 95 -135 101 -128 21
-286 -20 -320 -83 -6 -11 -35 -24 -80 -35 -84 -20 -139 -45 -205 -94 -45 -32
-48 -37 -30 -44 12 -4 45 -6 75 -5 65 3 171 -19 220 -46 49 -27 84 -85 120
-198 25 -77 32 -116 34 -201 2 -81 8 -118 24 -154 25 -56 133 -170 221 -234
35 -25 92 -74 127 -107 46 -46 79 -68 125 -86 46 -18 69 -33 86 -58 12 -19 29
-42 36 -51 25 -30 11 -117 -31 -194 -34 -63 -42 -70 -71 -73 -18 -2 -39 2 -46
8 -10 8 -15 7 -20 -5 -6 -17 -43 -20 -79 -6 -19 7 -27 6 -30 -4 -7 -17 42 -23
125 -14 35 3 64 5 65 5 1 -1 -2 -7 -6 -14 -4 -7 -27 -15 -51 -17 -24 -2 -47
-8 -52 -13 -14 -14 72 -2 104 14 l28 14 -6 -37 c-3 -21 -7 -46 -10 -55 -6 -19
-78 -38 -121 -31 -21 3 -24 2 -13 -6 12 -8 9 -12 -13 -20 -16 -6 -37 -11 -48
-11 -10 0 -19 -7 -19 -14 0 -12 10 -12 57 5 31 10 66 19 78 19 11 0 26 5 33
12 9 9 12 9 12 -3 0 -8 -16 -23 -35 -32 -19 -9 -35 -23 -35 -32 0 -23 8 -19
68 32 47 41 61 47 106 49 68 3 107 19 100 39 -6 14 -9 14 -28 1 -43 -28 -96
-24 -96 7 0 58 9 67 66 67 29 0 56 5 59 10 3 6 0 10 -7 11 -7 0 -29 1 -48 2
-25 2 -36 7 -38 20 -10 49 43 129 78 120 11 -3 20 -13 20 -22 0 -14 2 -14 10
-1 9 15 18 -1 33 -55 3 -11 5 1 4 28 0 26 -4 47 -8 47 -4 0 -9 7 -13 15 -4 11
4 9 24 -7 36 -26 55 -15 20 13 -20 15 -21 18 -5 12 18 -6 19 -5 5 11 -8 10
-23 22 -35 26 -13 6 -4 8 30 6 28 -1 56 -5 63 -9 7 -5 12 -3 12 7 0 13 5 14
27 5 18 -7 28 -6 33 1 4 7 14 1 24 -15 20 -31 33 -27 16 4 -8 16 -8 21 1 21 8
0 8 4 -1 15 -10 12 -7 15 14 21 28 7 57 0 54 -13 -1 -4 2 -20 6 -34 6 -21 12
-25 28 -21 17 4 20 2 15 -11 -4 -10 -3 -17 2 -17 5 0 12 16 15 35 7 37 22 46
29 18 4 -17 5 -17 6 0 1 16 3 17 16 3 8 -8 15 -24 15 -36 0 -13 9 -24 25 -30
33 -13 55 -3 55 25 0 31 20 43 27 16 11 -41 19 -20 15 38 l-4 59 64 4 c81 5
103 -3 160 -59 26 -26 51 -44 54 -40 4 4 12 -3 19 -16 6 -12 17 -21 23 -19 7
1 12 -4 12 -10 1 -15 47 -75 53 -68 22 30 33 61 32 92 -1 20 1 35 5 33 12 -8
10 -85 -3 -118 -14 -32 -14 -34 20 -73 20 -21 56 -50 82 -64 29 -16 52 -38 63
-59 13 -27 19 -31 24 -18 3 9 3 21 -1 27 -3 5 -2 10 3 10 4 0 18 -18 31 -40
12 -22 20 -40 17 -40 -4 0 6 -22 20 -50 23 -44 28 -48 45 -39 19 10 18 12 -14
57 -54 75 -54 74 -13 67 33 -7 35 -6 31 16 -3 13 -13 35 -23 49 -30 40 -46 74
-32 65 9 -5 10 -1 5 14 -3 11 -4 21 0 21 17 0 129 -136 118 -142 -4 -3 -2 -3
5 -1 17 4 76 -26 68 -35 -4 -3 -12 0 -18 6 -7 7 -19 12 -28 12 -9 0 6 -23 42
-62 32 -33 58 -66 58 -71 0 -10 65 -104 119 -171 54 -67 34 -24 -24 52 -31 39
-52 72 -49 72 4 0 1 7 -6 15 -17 20 -1 19 22 -2 10 -9 20 -14 23 -11 4 4 -18
31 -98 117 -18 19 -26 31 -18 26 9 -5 7 1 -4 19 -10 14 -24 26 -31 26 -12 0
-18 12 -16 31 1 4 -30 34 -68 68 -40 36 -67 67 -64 75 3 7 -16 39 -42 71 -30
36 -39 53 -26 46 12 -6 25 -17 29 -24 4 -6 21 -23 37 -37 28 -24 28 -22 -7 26
-20 29 -37 57 -37 63 0 6 -5 11 -11 11 -5 0 -7 6 -3 13 4 6 4 9 -1 5 -4 -4
-17 -2 -29 4 -11 7 -25 12 -30 13 -5 0 -11 6 -14 14 -3 9 0 11 9 5 12 -7 12
-5 0 9 -7 9 -17 15 -21 12 -4 -2 -20 12 -36 33 -16 20 -43 52 -60 70 -18 17
-29 32 -26 32 3 0 -3 8 -14 19 -10 10 -25 28 -33 39 -8 11 -20 18 -28 15 -8
-3 -13 -2 -11 3 5 19 -14 53 -33 59 -10 4 -19 10 -19 14 0 4 -22 35 -50 69
-27 34 -47 62 -43 62 4 0 0 6 -9 13 -9 6 -23 24 -33 40 -14 22 -15 27 -3 27 8
0 24 -17 36 -37 12 -21 33 -51 48 -68 14 -16 38 -46 53 -65 14 -19 31 -38 38
-43 6 -4 22 -24 34 -44 20 -32 23 -34 30 -17 4 10 8 15 9 9 0 -5 10 -21 21
-35 19 -24 20 -24 9 -2 -6 13 -10 28 -8 34 3 7 12 -7 21 -30 20 -50 25 -53 19
-11 -3 19 0 34 8 39 9 5 4 19 -19 50 -17 24 -31 47 -31 53 0 5 -13 26 -30 47
-35 44 -104 169 -97 176 6 6 82 -97 82 -111 0 -11 89 -105 99 -105 11 0 6 19
-10 34 -8 9 -14 26 -12 38 2 14 -2 22 -9 20 -8 -1 -13 8 -13 23 0 14 -15 46
-34 72 -33 48 -37 73 -10 73 13 0 18 12 15 33 0 4 6 7 14 7 8 0 15 -7 15 -15
0 -18 26 -20 36 -3 4 6 3 8 -4 4 -6 -3 -13 -2 -16 3 -12 18 35 23 54 6 10 -9
25 -15 32 -12 8 4 7 6 -4 6 -21 1 -24 21 -4 21 8 0 23 3 33 6 10 3 14 2 8 -3
-5 -4 -11 -15 -13 -23 -1 -10 3 -9 14 5 8 11 20 19 25 18 5 -2 9 1 9 5 0 5
-14 9 -31 10 -54 1 -45 12 11 12 29 0 51 3 47 6 -3 3 -47 6 -97 6 -106 -1
-110 11 -9 21 10 1 14 7 12 15 -4 9 -9 10 -16 3 -15 -15 -50 -14 -65 1 -17 17
-15 30 6 27 33 -3 43 1 36 14 -6 9 -5 9 7 0 16 -13 83 -13 95 0 4 3 14 2 24
-3 10 -5 20 -7 22 -4 3 3 17 -8 30 -23 14 -15 55 -57 93 -93 60 -57 63 -59 30
-19 -20 26 -37 50 -35 54 1 4 -2 11 -7 14 -5 3 -19 20 -31 37 l-22 31 58 8
c64 8 63 7 154 31 37 9 65 20 63 24 -3 4 -22 2 -43 -5 -41 -15 -93 -23 -184
-32 l-57 -5 -20 41 c-25 48 -26 61 -6 61 18 0 18 1 6 33 -6 14 -19 28 -31 32
-11 4 -19 13 -18 20 2 8 -6 21 -17 29 -28 21 -7 43 25 26 15 -8 25 -8 34 -1 8
7 21 6 41 -5 36 -19 43 -12 10 10 -14 9 -23 21 -20 26 4 6 3 10 -2 10 -13 0
-63 46 -63 58 0 11 33 9 64 -3 18 -8 18 -7 1 18 -9 15 -14 27 -10 27 4 0 2 7
-5 15 -19 22 -12 24 55 10 33 -7 61 -12 62 -11 1 1 -22 16 -52 33 -30 17 -89
39 -132 48 -97 22 -109 31 -35 28 l57 -3 -53 19 c-29 10 -56 21 -59 25 -6 6
31 11 52 6 6 -1 30 -4 55 -7 25 -3 82 -13 128 -23 45 -9 85 -13 88 -9 3 5 14
5 24 -1 28 -15 37 -12 14 5 -18 14 -17 14 16 9 19 -3 43 -7 53 -9 9 -2 14 1
11 6 -3 6 5 7 20 3 17 -4 26 -2 26 6 0 6 5 8 10 5 6 -3 10 -1 10 5 0 6 11 5
30 -5 39 -20 54 -19 33 3 -10 11 -21 17 -25 15 -5 -2 -8 -1 -8 4 0 4 -22 18
-50 31 -27 13 -50 30 -50 37 0 8 -4 15 -10 15 -5 0 -10 5 -10 10 0 14 54 12
68 -2 9 -9 15 -9 25 1 10 10 9 12 -3 10 -16 -3 -94 31 -86 38 2 2 21 0 43 -6
48 -14 96 -14 88 -1 -8 13 1 13 24 -2 20 -12 56 -4 47 11 -3 4 -20 12 -38 16
-26 6 -29 9 -12 12 11 2 42 -5 68 -17 52 -22 81 -26 71 -10 -4 6 -12 7 -18 3
-7 -4 -5 2 3 12 9 11 10 16 3 11 -7 -4 -13 -3 -13 2 0 15 26 33 35 24 5 -4 5
1 2 10 -3 10 -2 20 4 24 6 3 8 12 5 19 -3 10 5 15 27 17 l32 3 -45 22 -45 21
38 -3 c20 -2 37 1 37 5 0 4 12 5 26 2 23 -4 25 -3 14 15 -9 14 -21 18 -44 16
-26 -3 -28 -2 -11 6 19 9 19 10 -2 10 -13 1 -23 -4 -23 -11 0 -8 -6 -7 -16 4
-24 24 -10 36 36 31 58 -7 50 13 -12 29 l-53 13 40 5 c29 4 59 -3 110 -22 80
-31 138 -37 129 -13 -4 8 -15 15 -26 15 -10 0 -17 4 -14 9 7 11 -27 21 -70 21
-17 0 -47 7 -66 15 -24 9 -59 13 -108 10 -49 -2 -85 1 -108 11 -19 7 -37 12
-41 10 -3 -2 -12 3 -20 11 -12 13 -9 14 20 9 19 -3 49 -10 67 -15 17 -5 67
-11 110 -12 66 -3 84 0 114 19 19 12 50 22 68 22 45 0 34 8 -18 13 -28 3 -45
0 -48 -8 -3 -6 -15 -10 -27 -9 -12 1 -35 3 -51 3 -42 1 -24 14 26 19 65 6 77
19 17 18 -30 -1 -70 1 -89 5 -34 6 -34 6 10 8 25 1 83 3 130 6 51 3 75 1 60
-3 -19 -7 -7 -10 55 -16 44 -4 91 -9 105 -11 14 -2 66 -6 115 -9 l90 -6 -60
20 c-33 11 -79 21 -102 23 -23 1 -46 6 -50 11 -4 4 -3 7 2 6 6 -1 21 -2 35 -1
25 1 25 2 -5 15 -16 8 -47 17 -67 21 -55 9 -47 25 10 20 37 -3 41 -3 17 4 -38
11 -38 11 70 16 91 4 171 15 235 33 41 12 26 16 -45 12 -55 -2 -59 5 -7 13 50
8 51 17 4 17 -24 0 -42 5 -42 11 0 7 -10 9 -25 7 -13 -3 -23 -2 -20 2 2 3 -15
6 -38 7 -33 0 -35 -1 -9 -4 17 -2 32 -8 32 -13 0 -5 -6 -7 -12 -5 -7 3 -44 6
-83 9 -38 2 -83 8 -100 12 -28 8 -27 9 20 15 28 3 52 3 55 0 3 -4 46 -6 96 -6
87 0 90 1 51 12 -22 6 -74 15 -116 18 -42 4 -90 10 -107 15 -18 4 -51 4 -75 0
-24 -5 -47 -6 -51 -4 -4 3 -31 7 -60 10 -29 3 -55 8 -58 11 -6 6 281 -4 345
-12 33 -4 28 -1 -30 20 -102 37 -132 42 -345 59 -14 1 -52 -1 -85 -5z m472
-115 c-3 -3 -12 -4 -19 -1 -8 3 -5 6 6 6 11 1 17 -2 13 -5z m-1832 -254 c-3
-5 -14 -10 -23 -9 -14 0 -13 2 3 9 27 11 27 11 20 0z m-326 -102 c8 3 11 0 7
-7 -9 -14 -53 -10 -53 6 0 8 6 9 16 4 9 -5 22 -6 30 -3z m-228 -35 c-12 -20
-14 -14 -5 12 4 9 9 14 11 11 3 -2 0 -13 -6 -23z m129 -3 c-33 -26 -52 -25
-21 0 13 11 28 20 35 20 6 0 0 -9 -14 -20z m1829 -44 c0 -7 -2 -6 -6 2 -2 6
-9 10 -14 6 -5 -3 -9 2 -9 12 0 13 3 14 15 4 8 -7 15 -18 14 -24z m-246 -120
l32 -14 -45 6 c-25 3 -46 9 -48 13 -2 5 -22 9 -45 10 -31 0 -37 2 -22 8 21 9
78 -2 128 -23z m-488 -226 c14 -5 25 -11 25 -14 0 -6 -92 22 -99 30 -7 8 37
-2 74 -16z m-237 -19 c17 -1 32 -4 32 -8 0 -10 -123 -4 -134 7 -4 4 9 7 30 5
22 -2 54 -4 72 -4z m189 -17 c-3 -3 -12 -4 -19 -1 -8 3 -5 6 6 6 11 1 17 -2
13 -5z m113 -68 c0 -3 -4 -8 -10 -11 -5 -3 -10 -1 -10 4 0 6 5 11 10 11 6 0
10 -2 10 -4z m1 -383 c38 -36 69 -69 69 -72 0 -10 -88 -12 -129 -2 -26 6 -43
5 -50 -2 -7 -7 -14 -8 -21 -1 -11 11 -4 23 35 53 17 13 23 21 14 18 -10 -3
-25 3 -38 17 -23 24 -19 36 11 36 11 0 16 5 13 10 -3 6 1 10 10 10 9 0 48 -30
86 -67z m-166 -133 c-5 -8 20 -15 46 -12 3 1 4 -10 1 -23 -6 -33 -26 -31 -51
4 -25 35 -26 41 -5 41 8 0 12 -4 9 -10z m-255 -254 c8 -11 23 -33 34 -48 l19
-29 -38 25 c-21 14 -41 26 -45 26 -6 0 -30 44 -30 55 0 11 47 -12 60 -29z
m315 -400 l50 -48 -67 53 c-36 30 -69 60 -72 68 -8 18 17 -3 89 -73z m-106
-128 c-7 -12 -12 -32 -11 -43 1 -14 0 -15 -5 -5 -3 8 -10 18 -15 21 -5 3 1 18
13 33 25 32 36 28 18 -6z"/>
<path d="M2150 1906 c0 -2 7 -6 15 -10 8 -3 15 -1 15 4 0 6 -7 10 -15 10 -8 0
-15 -2 -15 -4z"/>
<path d="M3538 3213 c7 -3 16 -2 19 1 4 3 -2 6 -13 5 -11 0 -14 -3 -6 -6z"/>
<path d="M3583 3213 c9 -2 23 -2 30 0 6 3 -1 5 -18 5 -16 0 -22 -2 -12 -5z"/>
<path d="M3643 3213 c9 -2 25 -2 35 0 9 3 1 5 -18 5 -19 0 -27 -2 -17 -5z"/>
<path d="M3131 2891 c-12 -8 32 -21 68 -21 14 1 14 2 -2 11 -25 15 -52 18 -66
10z"/>
<path d="M3380 2881 c0 -6 9 -9 19 -8 11 0 17 5 15 9 -7 11 -34 10 -34 -1z"/>
<path d="M3128 2843 c7 -3 16 -2 19 1 4 3 -2 6 -13 5 -11 0 -14 -3 -6 -6z"/>
<path d="M2812 2645 c3 -3 36 -9 73 -12 50 -4 66 -3 61 6 -4 6 -35 11 -73 11
-37 0 -64 -2 -61 -5z"/>
<path d="M2855 2540 c-3 -5 -1 -10 4 -10 6 0 11 5 11 10 0 6 -2 10 -4 10 -3 0
-8 -4 -11 -10z"/>
<path d="M2890 2539 c0 -5 5 -7 10 -4 6 3 10 8 10 11 0 2 -4 4 -10 4 -5 0 -10
-5 -10 -11z"/>
<path d="M2850 2487 c0 -10 139 -59 149 -53 5 4 12 0 14 -6 4 -8 6 -7 6 4 1 9
7 18 13 20 7 3 -23 10 -67 17 -44 7 -88 15 -97 17 -10 3 -18 3 -18 1z"/>
<path d="M2587 2459 c5 -5 34 -16 63 -24 29 -8 49 -10 43 -4 -5 5 -18 11 -29
14 -10 2 -34 9 -53 14 -24 7 -31 7 -24 0z"/>
<path d="M2550 2427 c0 -10 109 -59 122 -54 7 3 4 6 -8 6 -12 1 -32 9 -45 20
-24 18 -69 37 -69 28z"/>
<path d="M3191 2097 c76 -59 129 -95 114 -77 -24 28 -94 80 -108 80 -6 0 -8
-1 -6 -3z"/>
<path d="M2450 2016 c0 -2 7 -7 16 -10 8 -3 12 -2 9 4 -6 10 -25 14 -25 6z"/>
<path d="M3127 1954 c-14 -19 -22 -22 -32 -14 -17 14 -32 -7 -16 -23 8 -8 20
-3 43 21 18 17 30 33 27 36 -2 2 -12 -7 -22 -20z"/>
<path d="M2548 1943 c7 -3 16 -2 19 1 4 3 -2 6 -13 5 -11 0 -14 -3 -6 -6z"/>
<path d="M2370 1861 c0 -10 26 -9 36 2 4 4 -2 7 -14 7 -12 0 -22 -4 -22 -9z"/>
<path d="M3120 1855 c0 -17 20 -57 34 -67 10 -7 40 2 32 10 -3 3 0 12 7 20 10
13 8 14 -16 10 -15 -3 -25 -3 -23 0 3 3 -2 11 -12 19 -15 13 -15 13 5 4 30
-15 38 -14 23 4 -16 19 -50 19 -50 0z"/>
<path d="M2980 1831 c0 -5 5 -13 10 -16 6 -3 10 -2 10 4 0 5 -4 13 -10 16 -5
3 -10 2 -10 -4z"/>
<path d="M2245 1790 c10 -11 25 -20 34 -20 12 1 10 5 -8 20 -30 26 -49 26 -26
0z"/>
<path d="M3540 1654 c0 -12 58 -99 79 -118 16 -15 19 -15 24 -2 4 9 -1 19 -9
24 -8 4 -33 30 -54 56 -22 27 -40 45 -40 40z"/>
<path d="M2459 1593 c-13 -16 -12 -17 4 -4 9 7 17 15 17 17 0 8 -8 3 -21 -13z"/>
<path d="M2400 1205 c0 -3 19 -17 43 -32 23 -15 45 -32 49 -38 4 -5 10 -7 13
-3 3 3 -9 16 -27 29 -38 28 -78 50 -78 44z"/>
<path d="M1736 1061 c-4 -7 -5 -15 -2 -18 9 -9 19 4 14 18 -4 11 -6 11 -12 0z"/>
<path d="M2610 1046 c0 -2 8 -10 18 -17 15 -13 16 -12 3 4 -13 16 -21 21 -21
13z"/>
<path d="M2490 995 c0 -3 15 -23 34 -43 19 -20 43 -47 54 -60 36 -41 108 -117
125 -131 15 -12 17 -12 11 2 -3 8 -11 18 -19 21 -7 2 -47 47 -89 100 -65 82
-116 131 -116 111z"/>
<path d="M2760 596 c0 -2 8 -10 18 -17 15 -13 16 -12 3 4 -13 16 -21 21 -21
13z"/>
<path d="M2833 418 c9 -13 37 -58 62 -100 25 -43 48 -78 50 -78 9 0 -13 46
-42 91 -17 24 -38 59 -49 77 -10 17 -22 32 -27 32 -5 0 -2 -10 6 -22z"/>
</g>
</svg>
